<svg width="48" height="49" viewBox="0 0 48 49" fill="none" xmlns="http://www.w3.org/2000/svg">
<path fill-rule="evenodd" clip-rule="evenodd" d="M18.4218 27.9224C18.7519 27.7401 19.1229 27.6445 19.5 27.6445C19.8771 27.6445 20.2481 27.7401 20.5783 27.9224C20.9011 28.1006 21.1746 28.3559 21.3745 28.6655L29.7478 41.2161C30.0549 41.6763 30.0836 42.2683 29.8226 42.7561C29.5616 43.244 29.0533 43.5486 28.5 43.5486H4.5C3.9515 43.5486 3.44674 43.2492 3.18372 42.7679C2.92069 42.2866 2.94135 41.7001 3.23759 41.2384L9.35009 31.7134L9.3686 31.6853C9.57626 31.3771 9.85643 31.1247 10.1845 30.9502C10.5125 30.7757 10.8784 30.6844 11.25 30.6844C11.6216 30.6844 11.9875 30.7757 12.3155 30.9502C12.6436 31.1247 12.9237 31.3771 13.1314 31.6853L13.1495 31.7129L14.3516 33.5842L17.6249 28.6664C17.8248 28.3564 18.0986 28.1007 18.4218 27.9224ZM19.5007 31.2625L16.2065 36.2117C15.9974 36.5221 15.7142 36.7754 15.3825 36.9487C15.0508 37.122 14.6811 37.2099 14.3069 37.2043C13.9327 37.1987 13.5658 37.0998 13.2394 36.9167C12.9153 36.7348 12.6413 36.4755 12.4419 36.1619L11.2503 34.307L7.2449 40.5486H25.6961L19.5007 31.2625Z" fill="#F5E9FC"/>
<path fill-rule="evenodd" clip-rule="evenodd" d="M28.5 4.54883C29.3284 4.54883 30 5.2204 30 6.04883V15.0488H39C39.8284 15.0488 40.5 15.7204 40.5 16.5488C40.5 17.3773 39.8284 18.0488 39 18.0488H28.5C27.6716 18.0488 27 17.3773 27 16.5488V6.04883C27 5.2204 27.6716 4.54883 28.5 4.54883Z" fill="#F5E9FC"/>
<path fill-rule="evenodd" clip-rule="evenodd" d="M8.37868 5.42751C8.94129 4.8649 9.70435 4.54883 10.5 4.54883H28.5C28.8978 4.54883 29.2794 4.70686 29.5607 4.98817L40.0607 15.4882C40.342 15.7695 40.5 16.151 40.5 16.5488V40.5488C40.5 41.3445 40.1839 42.1075 39.6213 42.6702C39.0587 43.2328 38.2956 43.5488 37.5 43.5488H36C35.1716 43.5488 34.5 42.8773 34.5 42.0488C34.5 41.2204 35.1716 40.5488 36 40.5488H37.5V17.1701L27.8787 7.54883L10.5 7.54883L10.5 25.5488C10.5 26.3773 9.82843 27.0488 9 27.0488C8.17157 27.0488 7.5 26.3773 7.5 25.5488V7.54883C7.5 6.75318 7.81607 5.99012 8.37868 5.42751Z" fill="#F5E9FC"/>
</svg>
